<svg xmlns="http://www.w3.org/2000/svg" id="a" viewBox="0 0 389.7 89.04"><defs><style>.c{fill-rule:evenodd;}.c,.d{fill:#233b76;}.e{fill:#fed208;}.f{fill:#f15e24;}.g{fill:#05929f;}.h{fill:#c1d832;}</style></defs><g id="b"><path class="d" d="M.72,16.67c-3.27,9.99,4.73,22.27,19.97,33.5C9.3,40.28,3.73,29.95,6.55,21.33,12.43,3.37,52.55-1.36,96.12,11.99c12,3.68,23.04,6.91,32.58,12-10.77-6.41-23.88-11.71-38.42-16.17C46.71-5.52,6.6-1.29,.72,16.67"></path><path class="g" d="M49.21,58.75c-15.95-9.13-25.21-20.85-22.7-30.42,1.77-6.73,9.09-11.48,19.65-13.26-13.34,1.08-23.65,6.22-25.7,14.02-2.66,10.09,7.31,22.19,24.54,31.56l4.21-1.9"></path><path class="f" d="M47.61,34.73c2.79-8.54,18.84-11.48,42.57-3.98,10.74,3.39,19.87,8.14,25.73,13.23-5.78-4.26-13.76-8.21-22.96-11.02-20.72-6.34-39.78-4.56-42.57,3.98-1.34,4.1,1.31,9.01,6.72,13.71-7.24-5.33-11.05-11.17-9.49-15.92"></path><path class="e" d="M99.63,51.69c-2.08,5.17-13.24,3.96-22.66,.69-4.9-1.7-9-4.09-11.61-6.54,2.59,2.07,6.99,3.81,10.46,4.93,9.49,3.05,18.97,2.09,20.36-.8,2.69-5.57-6.09-8.95-10.87-10.44,3.91,.85,5.66,1.69,8.41,2.95,5.71,3.28,6.93,6.67,5.91,9.21"></path><path class="c" d="M31.61,68.29c.81,.7,1.89,1.1,3.57,1.1,2.22,0,4.04-.88,4.04-2.13,0-2.21-5.93-5.37-15.76-5.37-13.87,0-21.75,6.04-21.75,13.43s6.8,13.72,21.95,13.72c9.76,0,15.02-3.16,15.02-4.75,0-.74-1.01-1.21-2.16-1.21-.81,0-1.14,.14-2.49,.66-1.08,.4-3.91,1.51-8.15,1.51-7.88,0-14.48-4.01-14.48-11.19,0-5.89,5.12-9.16,11.31-9.16,4.86,0,6.95,1.76,8.9,3.39"></path><path class="c" d="M84.62,74.76c-.54-6.92-7.88-12.91-21.28-12.91s-21.61,6.03-21.61,13.65c0,8.9,9.97,13.54,21.48,13.54,12.93,0,22.02-6.04,21.41-14.28m-9.49,.07c.07,2.54-.47,5.37-2.63,7.5-2.49,2.39-6.2,3.2-9.22,3.2-2.63,0-9.56-.73-11.52-6.73-.34-1.03-.54-2.24-.54-3.72,0-1.99,.27-7.21,6.87-9.34,1.48-.48,3.3-.74,5.05-.74,1.34,0,5.66,.08,8.95,2.87,2.57,2.25,2.97,5.01,3.04,6.96Z"></path><path class="c" d="M99.23,63.13c-.74-.59-1.01-.66-2.15-.66h-5.12c-.94,0-1.48,.07-1.48,.77v24.47c0,.66,.4,.74,1.48,.74h4.24c1.15,0,1.35-.22,1.35-.81v-17.81l23.16,17.85c.74,.59,.94,.7,1.75,.77h3.77c1.01,0,1.41-.11,1.41-.74v-24.5c0-.59-.27-.77-1.35-.73h-4.24c-1.08,0-1.35,.18-1.35,.73v16.37l-21.47-16.45"></path><path class="c" d="M163.83,68.29c.8,.7,1.88,1.1,3.56,1.1,2.23,0,4.04-.88,4.04-2.13,0-2.21-5.93-5.37-15.76-5.37-13.86,0-21.74,6.04-21.74,13.43s6.8,13.72,21.94,13.72c9.76,0,15.01-3.16,15.01-4.75,0-.74-1.01-1.21-2.15-1.21-.81,0-1.14,.14-2.49,.66-1.07,.4-3.91,1.51-8.15,1.51-7.88,0-14.48-4.01-14.48-11.19,0-5.89,5.12-9.16,11.31-9.16,4.87,0,6.95,1.76,8.91,3.39"></path><path class="c" d="M201.39,76.56c1.08,0,1.48-.07,1.48-.74v-1.8c0-.63-.4-.7-1.41-.7h-13.46v-7.58h15.96c1.14,0,1.62-.07,1.55-.81v-1.8c.07-.7-.61-.7-1.55-.7h-23.43c-1.21,.04-1.62,.22-1.62,1.03v24.14c0,.77,.47,.85,1.62,.85h23.43c1.14,0,1.41-.11,1.55-.48v-2.14c0-.7-.54-.73-1.55-.73h-15.96v-8.54h13.39"></path><path class="c" d="M221.94,63.13c-.74-.59-1.01-.66-2.16-.66h-5.12c-.94,0-1.48,.07-1.48,.77v24.47c0,.66,.4,.74,1.48,.74h4.24c1.14,0,1.35-.22,1.35-.81v-17.81l23.16,17.85c.74,.59,.94,.7,1.75,.77h3.77c1.01,0,1.42-.11,1.42-.74v-24.5c0-.59-.27-.77-1.35-.73h-4.24c-1.07,0-1.35,.18-1.35,.73v16.37l-21.47-16.45"></path><path class="c" d="M287.27,65.75c1.21,0,1.48-.22,1.48-.81v-1.8c0-.63-.54-.7-1.48-.7h-29.56c-1.01,0-1.48,.11-1.48,.77v1.73c0,.59,.27,.81,1.48,.81h10.17v21.82c0,.73,.4,.84,1.61,.88h6.13c1.14,0,1.42-.26,1.42-.88v-21.82h10.23"></path><path class="c" d="M294.55,87.68c0,.7,.54,.77,1.48,.77h5.86c1.28,0,1.55-.22,1.55-.88v-9.27c0-.33,0-.95,1.42-.95,1.34,0,2.09,.62,2.42,.95l10.1,9.42c.68,.63,.81,.7,2.22,.74h6.8c.47,0,1.34,0,1.34-.51,0-.22-.27-.48-.53-.7l-12.6-10.81c4.72-.81,10.51-2.9,10.51-6.95,0-2.06-1.41-4.08-4.38-5.41-4.05-1.77-9.97-1.88-13.94-1.88-4.38,0-9.63,.26-11.11,.55-.94,.18-1.14,.37-1.14,1.22v23.71m8.89-22.52c.68-.03,1.61-.11,3.03-.11,2.62,0,9.56,0,9.56,4.97,0,3.42-4.17,4.75-8.22,5.01-1.08,.07-1.88,.07-4.38,.03v-9.9h.01Z"></path><path class="c" d="M342.58,63.24c0-.66-.4-.77-1.41-.77h-6.4c-1.21,0-1.35,.26-1.41,.77v24.4c0,.66,.54,.77,1.48,.81h6.27c.87,0,1.48-.11,1.48-.81v-24.4"></path><path class="c" d="M374.55,87.71c.74,.66,.94,.74,2.16,.74h6.46c.47,0,1.28,0,1.28-.51,0-.18-.2-.37-.41-.63l-13.26-13.1,11.31-10.63c.2-.22,.4-.41,.4-.63,0-.48-.81-.48-1.22-.48h-4.64c-1.21,0-1.35,.03-2.09,.7l-7.61,7.17-7.4-7.17c-.67-.62-.95-.7-2.29-.7h-6.06c-.4,0-.25,0-.25,.52,0,.14,.13,.29,.34,.51l10.48,11.63-11.96,12.18c-.47,.4-.61,.55-.61,.7,0,.44,.88,.44,1.35,.44h3.61c1.14,0,1.28-.11,1.95-.74l9.36-8.68,9.1,8.68"></path><path class="h" d="M153.59,54.94c-8.32-12.98-25.67-26.78-50.8-35.25-21.87-7.36-47.04-11.18-63.17-10.12,15.53,.52,32.73,3.01,53.83,9.6,26.58,8.3,44.86,22.63,53.34,35.96,0,0,1.6-.09,3.09-.18,2.22-.15,3.71,0,3.71,0"></path><path class="d" d="M384.63,62.83h-1v-.36h2.43v.36h-1.01v2.93h-.43v-2.93h.01Z"></path><path class="d" d="M389.2,64.32c-.02-.46-.05-1.01-.05-1.42h-.01c-.11,.39-.25,.8-.41,1.25l-.58,1.6h-.32l-.53-1.57c-.16-.46-.29-.89-.38-1.28h-.01c-.01,.41-.03,.96-.06,1.45l-.09,1.41h-.41l.23-3.29h.54l.56,1.59c.14,.4,.25,.77,.33,1.11h.01c.08-.33,.2-.69,.35-1.11l.59-1.59h.54l.2,3.29h-.41l-.09-1.44Z"></path></g></svg>